<svg width="24" height="24" viewBox="0 0 24 24" fill="none" xmlns="http://www.w3.org/2000/svg">
<path d="M16.6318 7.43224C14.6471 5.62497 13.6547 4.72193 12.8274 5.0757C12.0626 5.40277 12.0056 6.56221 12.0013 8.83424L11.5066 8.81808C10.771 8.81808 10.403 8.81742 10.0928 8.84294C6.32281 9.15303 3.32983 12.1992 3.02511 16.0356C3.00004 16.3513 3 16.7255 3 17.4737C3 17.7977 3.00035 17.9604 3.01004 18.0342C3.13814 19.0044 4.347 19.3459 4.94741 18.5811C4.99302 18.523 5.07467 18.3833 5.2387 18.1051L5.48228 17.6899C5.72535 17.2777 5.8481 17.0722 5.98326 16.8932C6.61901 16.0516 7.56236 15.5073 8.59863 15.3856C8.819 15.3597 9.05534 15.3595 9.52776 15.3595L12.0013 15.3819C12.0095 17.5113 12.0873 18.6076 12.8274 18.9241C13.6547 19.2778 14.6471 18.3737 16.6318 16.5664L19.472 13.9799C20.4903 13.0525 20.9999 12.5891 21 11.9999C21 11.4106 20.4906 10.9463 19.472 10.0187L16.6318 7.43224Z" fill="currentColor"/>
</svg>
