<svg width="24" height="24" viewBox="0 0 24 24" fill="none" xmlns="http://www.w3.org/2000/svg">
<path d="M12 3C14.7956 3 16.1933 3.00033 17.2959 3.45703C18.7661 4.06599 19.934 5.23393 20.543 6.7041C20.9997 7.80672 21 9.2044 21 12C21 14.7956 20.9997 16.1933 20.543 17.2959C19.934 18.7661 18.7661 19.934 17.2959 20.543C16.1933 20.9997 14.7956 21 12 21C9.2044 21 7.80672 20.9997 6.7041 20.543C5.23393 19.934 4.06599 18.7661 3.45703 17.2959C3.00033 16.1933 3 14.7956 3 12C3 9.2044 3.00033 7.80672 3.45703 6.7041C4.06599 5.23393 5.23393 4.06599 6.7041 3.45703C7.80672 3.00033 9.2044 3 12 3ZM16.5967 7.67285C16.2558 7.39328 15.7656 7.45961 15.502 7.82129L10.4902 14.7012L8.33594 12.3828C8.03327 12.0572 7.53919 12.0539 7.23242 12.375C6.92578 12.6964 6.92198 13.2213 7.22461 13.5469L8.54395 14.9658C9.5168 16.0125 10.0034 16.5358 10.5928 16.498C11.182 16.4602 11.6059 15.8788 12.4531 14.7158L16.7373 8.83496C17.0005 8.47306 16.9374 7.95268 16.5967 7.67285Z" fill="currentColor"/>
</svg>
