<svg width="24" height="24" viewBox="0 0 24 24" fill="none" xmlns="http://www.w3.org/2000/svg">
<path d="M8.37402 7.20995C8.81343 6.87229 9.44885 6.95027 9.79004 7.38378C10.128 7.81327 10.0495 8.42996 9.61426 8.76464L5.40723 12L9.61426 15.2353C10.0495 15.57 10.128 16.1867 9.79004 16.6162C9.44885 17.0497 8.81342 17.1277 8.37402 16.79L4.91016 14.1269C3.63664 13.1477 3.00001 12.6577 3 12C3 11.3423 3.63663 10.8523 4.91016 9.87304L8.37402 7.20995ZM14.21 7.38378C14.5511 6.95027 15.1866 6.87229 15.626 7.20995L19.0898 9.87304C20.3634 10.8523 21 11.3423 21 12C21 12.6577 20.3634 13.1477 19.0898 14.1269L15.626 16.79C15.1866 17.1277 14.5511 17.0497 14.21 16.6162C13.872 16.1867 13.9505 15.57 14.3857 15.2353L18.5928 12L14.3857 8.76464C13.9505 8.42996 13.872 7.81327 14.21 7.38378Z" fill="currentColor"/>
</svg>
