<svg width="24" height="24" viewBox="0 0 24 24" fill="none" xmlns="http://www.w3.org/2000/svg">
<path d="M7 13C7.92997 13 8.39487 13.0003 8.77637 13.1025C9.81164 13.3799 10.6201 14.1884 10.8975 15.2236C10.9997 15.6051 11 16.07 11 17C11 17.93 10.9997 18.3949 10.8975 18.7764C10.6201 19.8116 9.81164 20.6201 8.77637 20.8975C8.39487 20.9997 7.92997 21 7 21C6.07003 21 5.60513 20.9997 5.22363 20.8975C4.18836 20.6201 3.37994 19.8116 3.10254 18.7764C3.00032 18.3949 3 17.93 3 17C3 16.07 3.00032 15.6051 3.10254 15.2236C3.37994 14.1884 4.18836 13.3799 5.22363 13.1025C5.60513 13.0003 6.07003 13 7 13ZM17 13C17.93 13 18.3949 13.0003 18.7764 13.1025C19.8116 13.3799 20.6201 14.1884 20.8975 15.2236C20.9997 15.6051 21 16.07 21 17C21 17.93 20.9997 18.3949 20.8975 18.7764C20.6201 19.8116 19.8116 20.6201 18.7764 20.8975C18.3949 20.9997 17.93 21 17 21C16.07 21 15.6051 20.9997 15.2236 20.8975C14.1884 20.6201 13.3799 19.8116 13.1025 18.7764C13.0003 18.3949 13 17.93 13 17C13 16.07 13.0003 15.6051 13.1025 15.2236C13.3799 14.1884 14.1884 13.3799 15.2236 13.1025C15.6051 13.0003 16.07 13 17 13ZM7 3C7.92997 3 8.39487 3.00032 8.77637 3.10254C9.81164 3.37994 10.6201 4.18836 10.8975 5.22363C10.9997 5.60513 11 6.07003 11 7C11 7.92997 10.9997 8.39487 10.8975 8.77637C10.6201 9.81164 9.81164 10.6201 8.77637 10.8975C8.39487 10.9997 7.92997 11 7 11C6.07003 11 5.60513 10.9997 5.22363 10.8975C4.18836 10.6201 3.37994 9.81164 3.10254 8.77637C3.00032 8.39487 3 7.92997 3 7C3 6.07003 3.00032 5.60513 3.10254 5.22363C3.37994 4.18836 4.18836 3.37994 5.22363 3.10254C5.60513 3.00032 6.07003 3 7 3ZM17 3C17.93 3 18.3949 3.00032 18.7764 3.10254C19.8116 3.37994 20.6201 4.18836 20.8975 5.22363C20.9997 5.60513 21 6.07003 21 7C21 7.92997 20.9997 8.39487 20.8975 8.77637C20.6201 9.81164 19.8116 10.6201 18.7764 10.8975C18.3949 10.9997 17.93 11 17 11C16.07 11 15.6051 10.9997 15.2236 10.8975C14.1884 10.6201 13.3799 9.81164 13.1025 8.77637C13.0003 8.39487 13 7.92997 13 7C13 6.07003 13.0003 5.60513 13.1025 5.22363C13.3799 4.18836 14.1884 3.37994 15.2236 3.10254C15.6051 3.00032 16.07 3 17 3Z" fill="currentColor"/>
</svg>
