<svg width="24" height="24" viewBox="0 0 24 24" fill="none" xmlns="http://www.w3.org/2000/svg">
<path d="M14.4388 16.0646C14.8878 16.5136 14.8878 17.2415 14.4388 17.6905L12.8129 19.3164C10.5681 21.5612 6.92848 21.5612 4.68363 19.3164C2.43879 17.0715 2.43879 13.4319 4.68363 11.1871L6.30949 9.56121C6.75846 9.11224 7.48638 9.11224 7.93535 9.56121C8.38432 10.0102 8.38432 10.7381 7.93535 11.1871L6.30949 12.8129C4.96259 14.1598 4.96259 16.3436 6.30949 17.6905C7.6564 19.0374 9.84016 19.0374 11.1871 17.6905L12.8129 16.0646C13.2619 15.6157 13.9898 15.6157 14.4388 16.0646ZM15.2517 8.74828C15.7007 9.19725 15.7007 9.92517 15.2517 10.3741L10.3741 15.2517C9.92517 15.7007 9.19725 15.7007 8.74828 15.2517C8.29931 14.8028 8.29931 14.0748 8.74828 13.6259L13.6259 8.74828C14.0748 8.29931 14.8028 8.29931 15.2517 8.74828ZM19.3164 4.68363C21.5612 6.92848 21.5612 10.5681 19.3164 12.8129L17.6905 14.4388C17.2415 14.8878 16.5136 14.8878 16.0646 14.4388C15.6157 13.9898 15.6157 13.2619 16.0646 12.8129L17.6905 11.1871C19.0374 9.84016 19.0374 7.6564 17.6905 6.30949C16.3436 4.96259 14.1598 4.96259 12.8129 6.30949L11.1871 7.93535C10.7381 8.38432 10.0102 8.38432 9.56121 7.93535C9.11224 7.48638 9.11224 6.75846 9.56121 6.30949L11.1871 4.68363C13.4319 2.43879 17.0715 2.43879 19.3164 4.68363Z" fill="currentColor"/>
</svg>
