<svg width="24" height="24" viewBox="0 0 24 24" fill="none" xmlns="http://www.w3.org/2000/svg">
<path d="M4.5 16.5C5.32843 16.5 6 17.1716 6 18C6 18.8284 5.32843 19.5 4.5 19.5C3.67157 19.5 3 18.8284 3 18C3 17.1716 3.67157 16.5 4.5 16.5ZM19.5 16.5C20.3284 16.5 21 17.1716 21 18C21 18.8284 20.3284 19.5 19.5 19.5H10.5C9.67157 19.5 9 18.8284 9 18C9 17.1716 9.67157 16.5 10.5 16.5H19.5ZM4.5 10.5C5.32843 10.5 6 11.1716 6 12C6 12.8284 5.32843 13.5 4.5 13.5C3.67157 13.5 3 12.8284 3 12C3 11.1716 3.67157 10.5 4.5 10.5ZM19.5 10.5C20.3284 10.5 21 11.1716 21 12C21 12.8284 20.3284 13.5 19.5 13.5H10.5C9.67157 13.5 9 12.8284 9 12C9 11.1716 9.67157 10.5 10.5 10.5H19.5ZM4.5 4.5C5.32843 4.5 6 5.17157 6 6C6 6.82843 5.32843 7.5 4.5 7.5C3.67157 7.5 3 6.82843 3 6C3 5.17157 3.67157 4.5 4.5 4.5ZM19.5 4.5C20.3284 4.5 21 5.17157 21 6C21 6.82843 20.3284 7.5 19.5 7.5H10.5C9.67157 7.5 9 6.82843 9 6C9 5.17157 9.67157 4.5 10.5 4.5H19.5Z" fill="currentColor"/>
</svg>
