<svg width="24" height="24" viewBox="0 0 24 24" fill="none" xmlns="http://www.w3.org/2000/svg">
<path d="M11.3102 5.681C15.8979 4.15148 18.1918 3.38673 19.4025 4.59746C20.6133 5.8082 19.8485 8.10206 18.319 12.6898L16.2444 18.9126C15.9084 19.9203 15.7404 20.4242 15.5608 20.7086C14.621 22.1963 12.5507 22.4428 11.2883 21.2172C11.047 20.983 10.7655 20.5326 10.2026 19.6318C10.0134 19.3291 9.91877 19.1777 9.84838 19.0278C9.49777 18.2815 9.49783 17.4178 9.84854 16.6714C9.91895 16.5216 10.0136 16.3702 10.2028 16.0674L13.9872 10.0128L7.93261 13.7972C7.62982 13.9864 7.47842 14.0811 7.32857 14.1515C6.58221 14.5022 5.71846 14.5022 4.97215 14.1516C4.82232 14.0812 4.67093 13.9866 4.36816 13.7974C3.46742 13.2345 3.01705 12.953 2.78279 12.7117C1.55723 11.4493 1.8037 9.37898 3.29142 8.43924C3.57579 8.25961 4.07966 8.09162 5.08741 7.75565L11.3102 5.681Z" fill="currentColor"/>
</svg>
