<svg width="24" height="24" viewBox="0 0 24 24" fill="none" xmlns="http://www.w3.org/2000/svg">
<path d="M12 3C14.8 3 16.2 3.00013 17.2695 3.54492C18.2103 4.02429 18.9757 4.78966 19.4551 5.73047C19.9999 6.79998 20 8.20005 20 11V13C20 15.8 19.9999 17.2 19.4551 18.2695C18.9757 19.2103 18.2103 19.9757 17.2695 20.4551C16.2 20.9999 14.8 21 12 21C9.20005 21 7.79998 20.9999 6.73047 20.4551C5.78966 19.9757 5.02429 19.2103 4.54492 18.2695C4.00013 17.2 4 15.8 4 13V11C4 8.20005 4.00013 6.79998 4.54492 5.73047C5.02429 4.78966 5.78966 4.02429 6.73047 3.54492C7.79998 3.00013 9.20005 3 12 3ZM7.875 15.25C7.39175 15.25 7 15.6418 7 16.125C7 16.6082 7.39175 17 7.875 17H12.125C12.6082 17 13 16.6082 13 16.125C13 15.6418 12.6082 15.25 12.125 15.25H7.875ZM7.875 11.125C7.39175 11.125 7 11.5168 7 12C7 12.4832 7.39175 12.875 7.875 12.875H14.125C14.6082 12.875 15 12.4832 15 12C15 11.5168 14.6082 11.125 14.125 11.125H7.875ZM7.875 7C7.39175 7 7 7.39175 7 7.875C7 8.35825 7.39175 8.75 7.875 8.75H16.125C16.6082 8.75 17 8.35825 17 7.875C17 7.39175 16.6082 7 16.125 7H7.875Z" fill="currentColor"/>
</svg>
