<svg width="24" height="24" viewBox="0 0 24 24" fill="none" xmlns="http://www.w3.org/2000/svg">
<path d="M6.30622 21C5.16986 21 4.5 20.2955 4.5 19.0931V4.91903C4.5 3.70445 5.16986 3 6.30622 3C7.44258 3 8.11244 3.70445 8.11244 4.91903V10.3603H15.8876V4.91903C15.8876 3.70445 16.5574 3 17.6938 3C18.8301 3 19.5 3.70445 19.5 4.91903V19.0931C19.5 20.2955 18.8301 21 17.6938 21C16.5574 21 15.8876 20.2955 15.8876 19.0931V13.3846H8.11244V19.0931C8.11244 20.2955 7.44258 21 6.30622 21Z" fill="currentColor"/>
</svg>
