<svg width="128" height="128" viewBox="0 0 128 128" fill="none" xmlns="http://www.w3.org/2000/svg">
<g clip-path="url(#clip0_18_28)">
<path d="M0 64C0 45.267 0 35.9004 2.81281 28.427C7.26451 16.5991 16.5991 7.26451 28.427 2.81281C35.9004 0 45.267 0 64 0V0C82.733 0 92.0996 0 99.573 2.81281C111.401 7.26451 120.735 16.5991 125.187 28.427C128 35.9004 128 45.267 128 64V64C128 82.733 128 92.0996 125.187 99.573C120.735 111.401 111.401 120.735 99.573 125.187C92.0996 128 82.733 128 64 128V128C45.267 128 35.9004 128 28.427 125.187C16.5991 120.735 7.26451 111.401 2.81281 99.573C0 92.0996 0 82.733 0 64V64Z" fill="white"/>
<path d="M124.343 64C124.343 54.5877 124.343 47.6946 124 42.2179C123.659 36.7712 122.989 32.9679 121.764 29.7143C117.684 18.8728 109.127 10.3165 98.2857 6.23571C95.0321 5.01115 91.2288 4.341 85.7821 4C80.3054 3.65721 73.4123 3.65714 64 3.65714C54.5877 3.65714 47.6946 3.65721 42.2179 4C36.7712 4.341 32.9679 5.01115 29.7143 6.23571C18.8728 10.3165 10.3165 18.8728 6.23571 29.7143C5.01115 32.9679 4.341 36.7712 4 42.2179C3.65721 47.6946 3.65714 54.5877 3.65714 64C3.65714 73.4123 3.65721 80.3054 4 85.7821C4.341 91.2288 5.01115 95.0321 6.23571 98.2857C10.3165 109.127 18.8728 117.684 29.7143 121.764C32.9679 122.989 36.7712 123.659 42.2179 124C47.6946 124.343 54.5877 124.343 64 124.343V128C46.4387 128 37.109 127.999 29.8536 125.682L28.4286 125.186C16.9703 120.873 7.8488 111.98 3.24286 100.675L2.81429 99.5714C0.0018171 92.0981 0 82.7323 0 64C0 46.4387 0.000536019 37.109 2.31786 29.8536L2.81429 28.4286C7.12688 16.9703 16.0199 7.8488 27.325 3.24286L28.4286 2.81429C35.9019 0.0018171 45.2677 0 64 0C82.7323 0 92.0981 0.0018171 99.5714 2.81429C111.399 7.26598 120.734 16.6007 125.186 28.4286C127.998 35.9019 128 45.2677 128 64C128 82.7323 127.998 92.0981 125.186 99.5714C120.734 111.399 111.399 120.734 99.5714 125.186C92.0981 127.998 82.7323 128 64 128V124.343C73.4123 124.343 80.3054 124.343 85.7821 124C91.2288 123.659 95.0321 122.989 98.2857 121.764C109.127 117.684 117.684 109.127 121.764 98.2857C122.989 95.0321 123.659 91.2288 124 85.7821C124.343 80.3054 124.343 73.4123 124.343 64Z" fill="black" fill-opacity="0.1"/>
<path d="M91.7336 89.6001C89.3705 89.6001 87.3467 88.7638 85.6619 87.0913C83.9991 85.4187 83.1786 83.3941 83.2004 81.0173C83.1786 78.6845 83.9991 76.6928 85.6619 75.0423C87.3467 73.3697 89.3705 72.5334 91.7336 72.5334C93.9653 72.5334 95.9345 73.3697 97.6411 75.0423C99.3696 76.6928 100.245 78.6845 100.267 81.0173C100.245 82.6018 99.8291 84.0433 99.0195 85.3417C98.2319 86.6401 97.1926 87.6745 95.9017 88.4447C94.6326 89.215 93.2433 89.6001 91.7336 89.6001Z" fill="black"/>
<path d="M51.9479 89.6C46.9408 89.6 42.6194 88.5771 38.9836 86.5313C35.3685 84.4639 32.5845 81.5243 30.6315 77.7126C28.6994 73.8793 27.7333 69.3246 27.7333 64.0485C27.7333 58.9231 28.7098 54.4438 30.6627 50.6105C32.6157 46.7557 35.3685 43.7623 38.9212 41.6303C42.474 39.4768 46.6604 38.4 51.4804 38.4C54.8877 38.4 58.0041 38.9492 60.8297 40.0475C63.6553 41.1458 66.0964 42.7717 68.1533 44.9252C70.2101 47.0787 71.8099 49.7383 72.9526 52.904C74.0953 56.0481 74.6666 59.6553 74.6666 63.7255V67.6664H33.0624V58.4924H60.4869C60.4661 56.8126 60.0818 55.3159 59.3338 54.0023C58.5859 52.6886 57.5574 51.6657 56.2486 50.9335C54.9604 50.1798 53.4749 49.8029 51.7921 49.8029C50.0884 49.8029 48.5614 50.2013 47.2109 50.9981C45.8605 51.7734 44.7905 52.8394 44.001 54.1961C43.2115 55.5313 42.796 57.0495 42.7544 58.7508V68.0863C42.7544 70.1106 43.1388 71.8873 43.9075 73.4163C44.6762 74.9238 45.767 76.0974 47.1798 76.9373C48.5925 77.7772 50.2754 78.1971 52.2284 78.1971C53.5788 78.1971 54.8046 78.0033 55.9057 77.6157C57.0069 77.228 57.9522 76.6574 58.7417 75.9036C59.5312 75.1499 60.0921 73.6317 60.4869 72.5334H74.6666C74.0849 75.7852 72.6513 79.6292 70.6776 82.0412C68.7246 84.4316 66.1588 86.2944 62.98 87.6296C59.8013 88.9432 56.1239 89.6 51.9479 89.6Z" fill="black"/>
</g>
<defs>
<clipPath id="clip0_18_28">
<rect width="128" height="128" fill="white"/>
</clipPath>
</defs>
</svg>
